<svg width="25" height="25" viewBox="0 0 25 25" fill="none" xmlns="http://www.w3.org/2000/svg">
<path d="M4.625 15.8751H6.19325C7.0775 15.8751 7.52075 15.8751 7.89313 16.0742C8.26663 16.2744 8.51187 16.6423 9.00237 17.3781L9.18237 17.6481C9.65712 18.3602 9.8945 18.7168 10.2174 18.6977C10.5391 18.6786 10.7338 18.2972 11.1208 17.5322L13.3325 13.1706C13.7364 12.3763 13.9378 11.9781 14.2674 11.9657C14.597 11.9522 14.8299 12.3324 15.2956 13.0918L16.0122 14.2618C16.496 15.0504 16.7368 15.4442 17.1204 15.6602C17.5051 15.8739 17.9664 15.8739 18.89 15.8739H20.375" stroke="#70D3E5" stroke-width="1.5" stroke-linecap="round"/>
<path d="M23.75 12.5C23.75 17.8033 23.75 20.4549 22.1019 22.1019C20.456 23.75 17.8033 23.75 12.5 23.75C7.19675 23.75 4.54513 23.75 2.897 22.1019C1.25 20.456 1.25 17.8033 1.25 12.5C1.25 7.19675 1.25 4.54513 2.897 2.897C4.54625 1.25 7.19675 1.25 12.5 1.25C17.8033 1.25 20.4549 1.25 22.1019 2.897C23.1976 3.99275 23.5644 5.53287 23.6881 8" stroke="#24AE7C" stroke-width="1.5" stroke-linecap="round"/>
</svg>
