<svg width="175" height="32" viewBox="0 0 175 32" fill="none" xmlns="http://www.w3.org/2000/svg">
<path d="M7.625 19.8751H9.19325C10.0775 19.8751 10.5208 19.8751 10.8931 20.0742C11.2666 20.2744 11.5119 20.6423 12.0024 21.3781L12.1824 21.6481C12.6571 22.3602 12.8945 22.7168 13.2174 22.6977C13.5391 22.6786 13.7338 22.2972 14.1208 21.5322L16.3325 17.1706C16.7364 16.3763 16.9378 15.9781 17.2674 15.9657C17.597 15.9522 17.8299 16.3324 18.2956 17.0918L19.0122 18.2618C19.496 19.0504 19.7368 19.4442 20.1204 19.6602C20.5051 19.8739 20.9664 19.8739 21.89 19.8739H23.375" stroke="#70D3E5" stroke-width="1.5" stroke-linecap="round"/>
<path d="M26.75 16.5C26.75 21.8033 26.75 24.4549 25.1019 26.1019C23.456 27.75 20.8033 27.75 15.5 27.75C10.1967 27.75 7.54513 27.75 5.897 26.1019C4.25 24.456 4.25 21.8033 4.25 16.5C4.25 11.1967 4.25 8.54513 5.897 6.897C7.54625 5.25 10.1967 5.25 15.5 5.25C20.8033 5.25 23.4549 5.25 25.1019 6.897C26.1976 7.99275 26.5644 9.53287 26.6881 12" stroke="#24AE7C" stroke-width="1.5" stroke-linecap="round"/>
<path d="M52.128 26.288C50.848 26.288 49.664 26.056 48.576 25.592C47.504 25.128 46.56 24.48 45.744 23.648C44.944 22.816 44.32 21.84 43.872 20.72C43.424 19.6 43.2 18.376 43.2 17.048C43.2 15.72 43.416 14.496 43.848 13.376C44.296 12.24 44.92 11.264 45.72 10.448C46.536 9.616 47.488 8.976 48.576 8.528C49.664 8.064 50.848 7.832 52.128 7.832C53.408 7.832 54.552 8.048 55.56 8.48C56.584 8.912 57.448 9.488 58.152 10.208C58.856 10.912 59.36 11.688 59.664 12.536L56.736 13.904C56.4 13.008 55.832 12.272 55.032 11.696C54.232 11.104 53.264 10.808 52.128 10.808C51.008 10.808 50.016 11.072 49.152 11.6C48.304 12.128 47.64 12.856 47.16 13.784C46.696 14.712 46.464 15.8 46.464 17.048C46.464 18.296 46.696 19.392 47.16 20.336C47.64 21.264 48.304 21.992 49.152 22.52C50.016 23.048 51.008 23.312 52.128 23.312C53.264 23.312 54.232 23.024 55.032 22.448C55.832 21.856 56.4 21.112 56.736 20.216L59.664 21.584C59.36 22.432 58.856 23.216 58.152 23.936C57.448 24.64 56.584 25.208 55.56 25.64C54.552 26.072 53.408 26.288 52.128 26.288ZM62.0499 26V7.832H65.1939V26H62.0499ZM68.0968 26V12.944H71.2408V26H68.0968ZM68.0968 11.48V8.12H71.2408V11.48H68.0968ZM80.3357 26.288C78.9917 26.288 77.8157 25.984 76.8077 25.376C75.7997 24.768 75.0157 23.944 74.4557 22.904C73.8957 21.864 73.6157 20.712 73.6157 19.448C73.6157 18.136 73.8957 16.976 74.4557 15.968C75.0317 14.944 75.8077 14.136 76.7837 13.544C77.7757 12.952 78.8797 12.656 80.0957 12.656C81.1197 12.656 82.0157 12.824 82.7837 13.16C83.5677 13.496 84.2317 13.96 84.7757 14.552C85.3197 15.144 85.7357 15.824 86.0237 16.592C86.3117 17.344 86.4557 18.16 86.4557 19.04C86.4557 19.264 86.4397 19.496 86.4077 19.736C86.3917 19.976 86.3517 20.184 86.2877 20.36H76.2077V17.96H84.5117L83.0237 19.088C83.1677 18.352 83.1277 17.696 82.9037 17.12C82.6957 16.544 82.3437 16.088 81.8477 15.752C81.3677 15.416 80.7837 15.248 80.0957 15.248C79.4397 15.248 78.8557 15.416 78.3437 15.752C77.8317 16.072 77.4397 16.552 77.1677 17.192C76.9117 17.816 76.8157 18.576 76.8797 19.472C76.8157 20.272 76.9197 20.984 77.1917 21.608C77.4797 22.216 77.8957 22.688 78.4397 23.024C78.9997 23.36 79.6397 23.528 80.3597 23.528C81.0797 23.528 81.6877 23.376 82.1837 23.072C82.6957 22.768 83.0957 22.36 83.3837 21.848L85.9277 23.096C85.6717 23.72 85.2717 24.272 84.7277 24.752C84.1837 25.232 83.5357 25.608 82.7837 25.88C82.0477 26.152 81.2317 26.288 80.3357 26.288ZM88.839 26V12.944H91.791V15.512L91.551 15.056C91.855 14.272 92.351 13.68 93.039 13.28C93.743 12.864 94.559 12.656 95.487 12.656C96.447 12.656 97.295 12.864 98.031 13.28C98.783 13.696 99.367 14.28 99.783 15.032C100.199 15.768 100.407 16.624 100.407 17.6V26H97.263V18.344C97.263 17.768 97.151 17.272 96.927 16.856C96.703 16.44 96.391 16.12 95.991 15.896C95.607 15.656 95.151 15.536 94.623 15.536C94.111 15.536 93.655 15.656 93.255 15.896C92.855 16.12 92.543 16.44 92.319 16.856C92.095 17.272 91.983 17.768 91.983 18.344V26H88.839ZM109.018 26.144C107.546 26.144 106.402 25.744 105.586 24.944C104.786 24.128 104.386 22.984 104.386 21.512V15.752H102.13V12.944H102.37C103.01 12.944 103.506 12.776 103.858 12.44C104.21 12.104 104.386 11.616 104.386 10.976V9.968H107.53V12.944H110.53V15.752H107.53V21.344C107.53 21.776 107.602 22.144 107.746 22.448C107.906 22.752 108.146 22.984 108.466 23.144C108.802 23.304 109.226 23.384 109.738 23.384C109.85 23.384 109.978 23.376 110.122 23.36C110.282 23.344 110.434 23.328 110.578 23.312V26C110.354 26.032 110.098 26.064 109.81 26.096C109.522 26.128 109.258 26.144 109.018 26.144ZM113.244 26V8.12H119.916C121.132 8.12 122.204 8.344 123.132 8.792C124.076 9.224 124.812 9.864 125.34 10.712C125.868 11.544 126.132 12.56 126.132 13.76C126.132 14.944 125.86 15.96 125.316 16.808C124.788 17.64 124.06 18.28 123.132 18.728C122.204 19.176 121.132 19.4 119.916 19.4H116.508V26H113.244ZM116.508 16.52H119.964C120.556 16.52 121.068 16.408 121.5 16.184C121.932 15.944 122.268 15.616 122.508 15.2C122.748 14.784 122.868 14.304 122.868 13.76C122.868 13.2 122.748 12.72 122.508 12.32C122.268 11.904 121.932 11.584 121.5 11.36C121.068 11.12 120.556 11 119.964 11H116.508V16.52ZM133.198 26.288C132.19 26.288 131.31 26.064 130.558 25.616C129.822 25.168 129.254 24.544 128.854 23.744C128.47 22.944 128.278 22.008 128.278 20.936V12.944H131.422V20.672C131.422 21.216 131.526 21.696 131.734 22.112C131.958 22.512 132.27 22.832 132.67 23.072C133.086 23.296 133.55 23.408 134.062 23.408C134.574 23.408 135.03 23.296 135.43 23.072C135.83 22.832 136.142 22.504 136.366 22.088C136.59 21.672 136.702 21.176 136.702 20.6V12.944H139.846V26H136.87V23.432L137.134 23.888C136.83 24.688 136.326 25.288 135.622 25.688C134.934 26.088 134.126 26.288 133.198 26.288ZM142.769 26V7.832H145.913V26H142.769ZM153.784 26.288C152.392 26.288 151.176 25.96 150.136 25.304C149.112 24.632 148.408 23.728 148.024 22.592L150.376 21.464C150.712 22.2 151.176 22.776 151.768 23.192C152.376 23.608 153.048 23.816 153.784 23.816C154.36 23.816 154.816 23.688 155.152 23.432C155.488 23.176 155.656 22.84 155.656 22.424C155.656 22.168 155.584 21.96 155.44 21.8C155.312 21.624 155.128 21.48 154.888 21.368C154.664 21.24 154.416 21.136 154.144 21.056L152.008 20.456C150.904 20.136 150.064 19.648 149.488 18.992C148.928 18.336 148.648 17.56 148.648 16.664C148.648 15.864 148.848 15.168 149.248 14.576C149.664 13.968 150.232 13.496 150.952 13.16C151.688 12.824 152.528 12.656 153.472 12.656C154.704 12.656 155.792 12.952 156.736 13.544C157.68 14.136 158.352 14.968 158.752 16.04L156.352 17.168C156.128 16.576 155.752 16.104 155.224 15.752C154.696 15.4 154.104 15.224 153.448 15.224C152.92 15.224 152.504 15.344 152.2 15.584C151.896 15.824 151.744 16.136 151.744 16.52C151.744 16.76 151.808 16.968 151.936 17.144C152.064 17.32 152.24 17.464 152.464 17.576C152.704 17.688 152.976 17.792 153.28 17.888L155.368 18.512C156.44 18.832 157.264 19.312 157.84 19.952C158.432 20.592 158.728 21.376 158.728 22.304C158.728 23.088 158.52 23.784 158.104 24.392C157.688 24.984 157.112 25.448 156.376 25.784C155.64 26.12 154.776 26.288 153.784 26.288ZM167.336 26.288C165.992 26.288 164.816 25.984 163.808 25.376C162.8 24.768 162.016 23.944 161.456 22.904C160.896 21.864 160.616 20.712 160.616 19.448C160.616 18.136 160.896 16.976 161.456 15.968C162.032 14.944 162.808 14.136 163.784 13.544C164.776 12.952 165.88 12.656 167.096 12.656C168.12 12.656 169.016 12.824 169.784 13.16C170.568 13.496 171.232 13.96 171.776 14.552C172.32 15.144 172.736 15.824 173.024 16.592C173.312 17.344 173.456 18.16 173.456 19.04C173.456 19.264 173.44 19.496 173.408 19.736C173.392 19.976 173.352 20.184 173.288 20.36H163.208V17.96H171.512L170.024 19.088C170.168 18.352 170.128 17.696 169.904 17.12C169.696 16.544 169.344 16.088 168.848 15.752C168.368 15.416 167.784 15.248 167.096 15.248C166.44 15.248 165.856 15.416 165.344 15.752C164.832 16.072 164.44 16.552 164.168 17.192C163.912 17.816 163.816 18.576 163.88 19.472C163.816 20.272 163.92 20.984 164.192 21.608C164.48 22.216 164.896 22.688 165.44 23.024C166 23.36 166.64 23.528 167.36 23.528C168.08 23.528 168.688 23.376 169.184 23.072C169.696 22.768 170.096 22.36 170.384 21.848L172.928 23.096C172.672 23.72 172.272 24.272 171.728 24.752C171.184 25.232 170.536 25.608 169.784 25.88C169.048 26.152 168.232 26.288 167.336 26.288Z" fill="white"/>
</svg>
